<svg xmlns="http://www.w3.org/2000/svg" width="220" height="60" viewBox="0 0 220 60"><defs><style>.cls-2{fill:#fff}.cls-3{fill:#561770}.cls-4{fill:#fcbf10}.cls-5{fill:#783193}</style></defs><g id="Group_5347" transform="translate(-139 -485)"><g id="Group_5326" transform="translate(276.346 531.436)"><g id="Group_5325"><path id="Path_9966" fill="#fec010" d="M395.6 608.117a19.4 19.4 0 0 0 5.054 1.372c3.431.549 5.1 1.342 9.081 1.588 3.369.291 7.235.168 8.5.18 2.253.095 5.681.1 7.934.028 5.463-.171 10.311-.331 15.774-.719 2.6-.185 5.039-.711 7.64-1.09 2.211-.322 4.821-.573 7.031-.979 3.982-.732 8.293-2.13 12.273-2.976 1.775-.377 3.566-1.107 5.339-1.548 1.309-.375 1.444-.742 2.386-1.867a8.823 8.823 0 0 0-3.163-.6c-1.059.025-1.642.035-2.291.024-1.515-.025-2.66.006-4.174.088-5.18.513-12.218.318-13.865.424-2.6.168-5.317-.046-7.918.063-1.082.046-3.446.126-4.529.179-2.558.127-4.959.222-7.518.246-4.815.044-8.834.224-13.649.134-2.037-.037-3.57-.2-5.607-.228-3.6-.05-6.44-1.1-11.015-.463a25.053 25.053 0 0 0-4.128.944 24.27 24.27 0 0 0-3.279 1.983c-.388.234-1.544 2.679.124 3.217z" transform="translate(-394.722 -601.504)"/></g></g><g id="Group_5333" transform="translate(140.012 486.33)"><g id="Group_5327" transform="translate(0 1.05)"><path id="Path_9967" d="M154.052 546.675q1.8-1.577 3.829-3.416t4.2-3.83q2.176-1.988 4.2-3.866t3.8-3.563q1.763-1.689 2.965-2.89a15.14 15.14 0 0 0 2.553-3.116 5.476 5.476 0 0 0 .676-2.665 3.739 3.739 0 0 0-1.275-3.12 5.407 5.407 0 0 0-3.453-1.014h-30.559a13.575 13.575 0 0 0-.6 1.577 7.53 7.53 0 0 0-.376 2.4 3.777 3.777 0 0 0 1.014 2.853 4.972 4.972 0 0 0 3.491.976h19.9q-2.026 2.027-5.18 4.993t-6.607 6.119q-3.454 3.153-6.794 6.193t-5.819 5.144v7.432h36.339v-7.507h-25.383q1.276-1.124 3.079-2.7z" class="cls-2" transform="translate(-140.012 -519.195)"/></g><g id="Group_5328" transform="translate(40.092)"><path id="Path_9968" d="M247.311 520.949a15.984 15.984 0 0 0-5.067-2.7 21.526 21.526 0 0 0-6.846-1.013h-.131a22.015 22.015 0 0 0-8.076 1.463 19.3 19.3 0 0 0-6.457 4.129 18.827 18.827 0 0 0-4.28 6.382 21.286 21.286 0 0 0-1.539 8.221 20.908 20.908 0 0 0 1.576 8.372 17.853 17.853 0 0 0 4.317 6.156 18.225 18.225 0 0 0 6.382 3.791 23.557 23.557 0 0 0 7.846 1.277 31.4 31.4 0 0 0 5.518-.451 36.117 36.117 0 0 0 4.43-1.051 19.125 19.125 0 0 0 3.191-1.277q1.276-.674 1.877-1.05l-3.154-6.007q-.45.226-1.388.676a21.156 21.156 0 0 1-2.253.9 20.506 20.506 0 0 1-2.965.751 20.194 20.194 0 0 1-3.6.3q-5.782 0-8.9-2.364a9.328 9.328 0 0 1-3.717-6.195q1.5.075 2.816.113t2.815.038a54.421 54.421 0 0 0 10.661-.863 20.6 20.6 0 0 0 6.682-2.4 8.617 8.617 0 0 0 3.454-3.679 11.365 11.365 0 0 0 .976-4.767 11.055 11.055 0 0 0-4.167-8.747zm-4.617 10.774a4.214 4.214 0 0 1-1.878 1.877 13.524 13.524 0 0 1-3.979 1.352 34.313 34.313 0 0 1-6.682.525H227q-1.577 0-3.3-.075a13.4 13.4 0 0 1 .863-4.279 11.831 11.831 0 0 1 2.215-3.716 10.591 10.591 0 0 1 3.528-2.591 11.488 11.488 0 0 1 4.88-.976 10.534 10.534 0 0 1 5.668 1.427 4.713 4.713 0 0 1 2.29 4.28 5.482 5.482 0 0 1-.45 2.176z" class="cls-2" transform="translate(-214.915 -517.233)"/></g><g id="Group_5329" transform="translate(80.409)"><path id="Path_9969" d="M325.526 526.5a14.245 14.245 0 0 0-3.791-5.03 16.946 16.946 0 0 0-5.819-3.153 23.852 23.852 0 0 0-7.3-1.088h-.116a23.489 23.489 0 0 0-7.258 1.088 16.993 16.993 0 0 0-5.781 3.153 14.635 14.635 0 0 0-3.829 5.03 15.651 15.651 0 0 0-1.389 6.72v22.749h8.557V535.4q0-5.1 2.44-7.77t7.32-2.665q4.8 0 7.283 2.665t2.478 7.77v20.571h8.559v-22.747a16.032 16.032 0 0 0-1.354-6.724z" class="cls-2" transform="translate(-290.239 -517.233)"/></g><g id="Group_5330" transform="translate(123.503 1.05)"><path id="Path_9970" d="M375.332 519.195a5.366 5.366 0 0 0-3.379.939 3.622 3.622 0 0 0-1.2 3.04v33.71h8.559v-36.863c-.252-.1-.751-.263-1.5-.488a8.572 8.572 0 0 0-2.48-.338z" class="cls-2" transform="translate(-370.752 -519.195)"/></g><g id="Group_5331" transform="translate(138.594 1.05)"><path id="Path_9971" d="M431.53 519.195a5.231 5.231 0 0 0-3.3.939 3.622 3.622 0 0 0-1.2 3.04v16.593q0 5.107-2.4 7.77t-7.358 2.666q-4.955 0-7.358-2.666t-2.4-7.77v-19.746q-.377-.149-1.5-.488a8.576 8.576 0 0 0-2.478-.339 5.366 5.366 0 0 0-3.378.939 3.62 3.62 0 0 0-1.2 3.04v18.469a16.745 16.745 0 0 0 1.351 6.87 14.606 14.606 0 0 0 3.754 5.143 16.184 16.184 0 0 0 5.781 3.191 25.916 25.916 0 0 0 14.866 0 16.584 16.584 0 0 0 5.819-3.191 14.048 14.048 0 0 0 3.753-5.143 17.171 17.171 0 0 0 1.314-6.87v-21.621c-.252-.1-.75-.263-1.5-.488a8.858 8.858 0 0 0-2.566-.338z" class="cls-2" transform="translate(-398.945 -519.195)"/></g><g id="Group_5332" transform="translate(179.137)"><path id="Path_9972" d="M507.575 537.016q-3.455-2.59-9.685-3.416l-7.657-.976a11.918 11.918 0 0 1-4.731-1.389 3.268 3.268 0 0 1-1.652-2.966q0-4.578 8.709-4.579a28.127 28.127 0 0 1 5.555.488 28.469 28.469 0 0 1 4.13 1.126 15.09 15.09 0 0 1 2.741 1.277 8.918 8.918 0 0 1 1.313.938 2.786 2.786 0 0 0 .676-.413 4.7 4.7 0 0 0 .863-.863 7.124 7.124 0 0 0 .751-1.2 3.481 3.481 0 0 0 .338-1.577q0-2.776-4.317-4.5-4.295-1.717-12.044-1.726h-.227a28.814 28.814 0 0 0-7.776.938 14.763 14.763 0 0 0-5.294 2.591 10.14 10.14 0 0 0-2.965 3.791 11.176 11.176 0 0 0-.939 4.543 10.393 10.393 0 0 0 1.014 4.767 9.534 9.534 0 0 0 2.822 3.33 14.207 14.207 0 0 0 4.317 2.139 27.555 27.555 0 0 0 5.518 1.089l5.856.676q4.055.45 5.631 1.539a3.629 3.629 0 0 1 1.577 3.19 3.552 3.552 0 0 1-2.478 3.491 17.044 17.044 0 0 1-6.382 1.013 32.067 32.067 0 0 1-5.555-.45 34.75 34.75 0 0 1-4.542-1.089 33.546 33.546 0 0 1-3.341-1.24 11.747 11.747 0 0 1-1.877-.976l-3.228 5.781a11.837 11.837 0 0 0 1.952 1.126 28.79 28.79 0 0 0 3.942 1.539 45.265 45.265 0 0 0 5.744 1.389 41.285 41.285 0 0 0 7.357.6q8.408 0 12.876-3.379a10.733 10.733 0 0 0 4.467-9.009q-.005-5.022-3.459-7.613z" class="cls-2" transform="translate(-474.691 -517.233)"/></g></g></g></svg>